<svg width="586" height="70" viewBox="0 0 586 70" fill="none" xmlns="http://www.w3.org/2000/svg">
<path d="M30.848 69.96C13.184 69.96 0.704 55.944 0.704 35.4C0.704 14.856 13.184 0.839996 30.848 0.839996C42.944 0.839996 53.6 7.08 57.824 21.096L48.608 24.456C45.248 14.184 39.2 9.672 30.848 9.672C18.56 9.672 10.496 19.176 10.496 35.4C10.496 51.624 18.56 61.128 30.848 61.128C39.392 61.128 45.536 56.808 49.088 46.344L58.304 49.704C53.888 64.008 43.136 69.96 30.848 69.96ZM30.848 68.616C42.368 68.616 52.16 63.24 56.576 50.472L49.856 48.072C46.112 58.152 39.584 62.472 30.848 62.472C17.792 62.472 9.152 52.2 9.152 35.4C9.152 18.6 17.792 8.328 30.848 8.328C39.392 8.328 45.824 12.84 49.376 22.728L56.096 20.328C51.872 7.65599 42.176 2.184 30.848 2.184C13.952 2.184 2.048 15.432 2.048 35.4C2.048 55.368 13.952 68.616 30.848 68.616ZM96.9418 69.96C79.3738 69.96 66.7978 55.944 66.7978 35.4C66.7978 14.856 79.3738 0.839996 96.9418 0.839996C114.51 0.839996 126.99 14.76 126.99 35.4C126.99 56.04 114.51 69.96 96.9418 69.96ZM96.9418 68.616C113.742 68.616 125.646 55.464 125.646 35.4C125.646 15.336 113.742 2.184 96.9418 2.184C80.1418 2.184 68.1418 15.432 68.1418 35.4C68.1418 55.368 80.1418 68.616 96.9418 68.616ZM96.9418 62.472C83.9818 62.472 75.2458 52.2 75.2458 35.4C75.2458 18.6 83.9818 8.328 96.9418 8.328C109.902 8.328 118.542 18.6 118.542 35.4C118.542 52.2 109.902 62.472 96.9418 62.472ZM96.9418 61.128C109.134 61.128 117.198 51.624 117.198 35.4C117.198 19.176 109.134 9.672 96.9418 9.672C84.7498 9.672 76.5898 19.176 76.5898 35.4C76.5898 51.624 84.7498 61.128 96.9418 61.128ZM148.456 69H138.664V1.8H149.128L183.784 53.736C183.496 47.304 183.4 41.736 183.4 35.688V1.8H193.192V69H182.728L148.072 17.256C148.36 23.592 148.456 28.968 148.456 35.112V69ZM140.008 3.144V67.656H147.112V35.112C147.112 28.296 147.016 22.344 146.632 14.952H148.168L183.496 67.656H191.848V3.144H184.744V35.688C184.744 42.408 184.84 48.552 185.224 55.848H183.592L148.36 3.144H140.008ZM233.884 69H224.092V10.632H202.204V1.8H255.772V10.632H233.884V69ZM225.436 9.288V67.656H232.54V9.288H254.427V3.144H203.548V9.288H225.436ZM265.703 69H255.623L279.719 1.8H292.391L316.583 69H306.119L300.839 53.928H270.983L265.703 69ZM280.679 3.144L257.543 67.656H264.743L270.023 52.584H301.799L307.079 67.656H314.663L291.431 3.144H280.679ZM299.783 46.92H272.039L285.191 9.096H286.631L299.783 46.92ZM285.959 11.112L273.959 45.576H297.863L285.959 11.112ZM351.754 69.96C334.09 69.96 321.61 55.944 321.61 35.4C321.61 14.856 334.09 0.839996 351.754 0.839996C363.85 0.839996 374.506 7.08 378.73 21.096L369.514 24.456C366.154 14.184 360.106 9.672 351.754 9.672C339.466 9.672 331.402 19.176 331.402 35.4C331.402 51.624 339.466 61.128 351.754 61.128C360.298 61.128 366.442 56.808 369.994 46.344L379.21 49.704C374.794 64.008 364.042 69.96 351.754 69.96ZM351.754 68.616C363.274 68.616 373.066 63.24 377.482 50.472L370.762 48.072C367.018 58.152 360.49 62.472 351.754 62.472C338.698 62.472 330.058 52.2 330.058 35.4C330.058 18.6 338.698 8.328 351.754 8.328C360.298 8.328 366.73 12.84 370.282 22.728L377.002 20.328C372.778 7.65599 363.082 2.184 351.754 2.184C334.858 2.184 322.954 15.432 322.954 35.4C322.954 55.368 334.858 68.616 351.754 68.616ZM416.696 69H406.904V10.632H385.016V1.8H438.584V10.632H416.696V69ZM408.248 9.288V67.656H415.352V9.288H437.24V3.144H386.36V9.288H408.248ZM497.225 69.96C482.825 69.96 470.633 61.032 470.633 41.928V1.8H480.521V41.928C480.521 56.04 488.393 61.128 497.225 61.128C506.057 61.128 513.833 56.04 513.833 41.928V1.8H523.721V41.928C523.721 61.032 511.625 69.96 497.225 69.96ZM497.225 68.616C511.049 68.616 522.377 60.264 522.377 41.928V3.144H515.177V41.928C515.177 57 506.633 62.472 497.225 62.472C487.817 62.472 479.177 57 479.177 41.928V3.144H471.977V41.928C471.977 60.264 483.401 68.616 497.225 68.616ZM561.662 69.96C549.374 69.96 538.814 64.488 535.166 53.256L543.998 50.088C546.782 58.056 554.27 61.416 561.662 61.416C570.974 61.416 575.294 57.096 575.294 51.432C575.294 34.92 536.798 44.424 536.798 18.6C536.798 8.136 545.726 0.839996 559.742 0.839996C571.262 0.839996 580.478 6.024 583.934 16.584L575.102 19.752C572.51 12.264 566.366 9.384 559.742 9.384C551.102 9.384 546.686 13.512 546.686 18.6C546.686 33.96 585.182 25.992 585.182 51.432C585.182 62.664 575.966 69.96 561.662 69.96ZM561.662 68.616C575.39 68.616 583.838 61.896 583.838 51.432C583.838 27.24 545.342 35.304 545.342 18.6C545.342 12.744 550.334 8.04 559.742 8.04C566.366 8.04 572.894 10.92 575.87 18.024L582.206 15.816C578.75 6.6 570.302 2.184 559.742 2.184C546.398 2.184 538.142 8.904 538.142 18.6C538.142 43.656 576.638 33.192 576.638 51.432C576.638 57.864 571.742 62.76 561.662 62.76C554.27 62.76 546.59 59.592 543.23 51.816L536.894 54.024C540.734 63.912 550.334 68.616 561.662 68.616Z" fill="white"/>
</svg>
